{
  "accessors": [
    {
      "bufferView": 2,
      "componentType": 5126,
      "count": 65532,
      "max": [
        0.07120925188064575,
        0.13364973664283752,
        0.14309373497962952
      ],
      "min": [
        -0.07034218311309814,
        -0.15420246124267578,
        -3.737211227416992e-05
      ],
      "type": "VEC3"
    },
    {
      "bufferView": 2,
      "byteOffset": 786384,
      "componentType": 5126,
      "count": 65532,
      "max": [
        0.9999933242797852,
        0.9999624490737915,
        0.9999786615371704
      ],
      "min": [
        -0.9999501705169678,
        -0.9998707175254822,
        -0.9999997615814209
      ],
      "type": "VEC3"
    },
    {
      "bufferView": 1,
      "componentType": 5126,
      "count": 65532,
      "max": [
        0.9994898438453674,
        0.9997557401657104
      ],
      "min": [
        0.000244140625,
        0.0002538157859817147
      ],
      "type": "VEC2"
    },
    {
      "bufferView": 1,
      "byteOffset": 524256,
      "componentType": 5126,
      "count": 65532,
      "max": [
        0.9994898438453674,
        0.9997557401657104
      ],
      "min": [
        0.000244140625,
        0.0002538157859817147
      ],
      "type": "VEC2"
    },
    {
      "bufferView": 0,
      "componentType": 5125,
      "count": 306999,
      "type": "SCALAR"
    },
    {
      "bufferView": 2,
      "byteOffset": 1572768,
      "componentType": 5126,
      "count": 65532,
      "max": [
        0.07122102379798889,
        0.12260985374450684,
        0.15431344509124756
      ],
      "min": [
        -0.04723536968231201,
        -0.15542331337928772,
        -3.737211227416992e-05
      ],
      "type": "VEC3"
    },
    {
      "bufferView": 2,
      "byteOffset": 2359152,
      "componentType": 5126,
      "count": 65532,
      "max": [
        0.9999997615814209,
        0.9994927048683167,
        0.9999966025352478
      ],
      "min": [
        -0.9999681711196899,
        -0.999994158744812,
        -0.9999953508377075
      ],
      "type": "VEC3"
    },
    {
      "bufferView": 1,
      "byteOffset": 1048512,
      "componentType": 5126,
      "count": 65532,
      "max": [
        0.9997240304946899,
        0.9987791776657104
      ],
      "min": [
        0.000244140625,
        0.00024779571685940027
      ],
      "type": "VEC2"
    },
    {
      "bufferView": 1,
      "byteOffset": 1572768,
      "componentType": 5126,
      "count": 65532,
      "max": [
        0.9997240304946899,
        0.9987791776657104
      ],
      "min": [
        0.000244140625,
        0.00024779571685940027
      ],
      "type": "VEC2"
    },
    {
      "bufferView": 0,
      "byteOffset": 1227996,
      "componentType": 5125,
      "count": 297750,
      "type": "SCALAR"
    },
    {
      "bufferView": 2,
      "byteOffset": 3145536,
      "componentType": 5126,
      "count": 43666,
      "max": [
        0.07130274176597595,
        0.02461552619934082,
        0.15704312920570374
      ],
      "min": [
        -0.03884124755859375,
        -0.14345823228359222,
        0.07997900247573853
      ],
      "type": "VEC3"
    },
    {
      "bufferView": 2,
      "byteOffset": 3669528,
      "componentType": 5126,
      "count": 43666,
      "max": [
        0.9999921917915344,
        0.9999606013298035,
        0.9999939203262329
      ],
      "min": [
        -0.9999712109565735,
        -0.9998924732208252,
        -0.999535322189331
      ],
      "type": "VEC3"
    },
    {
      "bufferView": 1,
      "byteOffset": 2097024,
      "componentType": 5126,
      "count": 43666,
      "max": [
        0.9996373653411865,
        0.9987791776657104
      ],
      "min": [
        0.000244140625,
        0.00024845136795192957
      ],
      "type": "VEC2"
    },
    {
      "bufferView": 1,
      "byteOffset": 2446352,
      "componentType": 5126,
      "count": 43666,
      "max": [
        0.9996373653411865,
        0.9987791776657104
      ],
      "min": [
        0.000244140625,
        0.00024845136795192957
      ],
      "type": "VEC2"
    },
    {
      "bufferView": 0,
      "byteOffset": 2418996,
      "componentType": 5125,
      "count": 182949,
      "type": "SCALAR"
    }
  ],
  "asset": {
    "extras": {
      "author": "644230009 (https://sketchfab.com/644230009)",
      "license": "CC-BY-4.0 (http://creativecommons.org/licenses/by/4.0/)",
      "source": "https://sketchfab.com/3d-models/644230009-af1-0ced689705db4b85b0af65bfd10ef962",
      "title": "644230009 AF1"
    },
    "generator": "Sketchfab-15.32.0",
    "version": "2.0"
  },
  "bufferViews": [
    {
      "buffer": 0,
      "byteLength": 3150792,
      "name": "floatBufferViews",
      "target": 34963
    },
    {
      "buffer": 0,
      "byteLength": 2795680,
      "byteOffset": 3150792,
      "byteStride": 8,
      "name": "floatBufferViews",
      "target": 34962
    },
    {
      "buffer": 0,
      "byteLength": 4193520,
      "byteOffset": 5946472,
      "byteStride": 12,
      "name": "floatBufferViews",
      "target": 34962
    }
  ],
  "buffers": [
    {
      "byteLength": 10139992,
      "uri": "scene.bin"
    }
  ],
  "extensionsUsed": [
    "KHR_materials_unlit"
  ],
  "images": [
    {
      "uri": "textures/tex_u1_v1_baseColor.jpeg"
    }
  ],
  "materials": [
    {
      "doubleSided": true,
      "extensions": {
        "KHR_materials_unlit": {}
      },
      "name": "tex_u1_v1",
      "pbrMetallicRoughness": {
        "baseColorTexture": {
          "index": 0
        },
        "metallicFactor": 0.0
      }
    }
  ],
  "meshes": [
    {
      "name": "model_tex_u1_v1_0",
      "primitives": [
        {
          "attributes": {
            "NORMAL": 1,
            "POSITION": 0,
            "TEXCOORD_0": 2,
            "TEXCOORD_1": 3
          },
          "indices": 4,
          "material": 0,
          "mode": 4
        }
      ]
    },
    {
      "name": "model_tex_u1_v1_0",
      "primitives": [
        {
          "attributes": {
            "NORMAL": 6,
            "POSITION": 5,
            "TEXCOORD_0": 7,
            "TEXCOORD_1": 8
          },
          "indices": 9,
          "material": 0,
          "mode": 4
        }
      ]
    },
    {
      "name": "model_tex_u1_v1_0",
      "primitives": [
        {
          "attributes": {
            "NORMAL": 11,
            "POSITION": 10,
            "TEXCOORD_0": 12,
            "TEXCOORD_1": 13
          },
          "indices": 14,
          "material": 0,
          "mode": 4
        }
      ]
    }
  ],
  "nodes": [
    {
      "children": [
        1
      ],
      "matrix": [
        1.0,
        0.0,
        0.0,
        0.0,
        0.0,
        2.220446049250313e-16,
        -1.0,
        0.0,
        0.0,
        1.0,
        2.220446049250313e-16,
        0.0,
        0.0,
        0.0,
        0.0,
        1.0
      ],
      "name": "Sketchfab_model"
    },
    {
      "children": [
        2
      ],
      "matrix": [
        1.0,
        0.0,
        0.0,
        0.0,
        0.0,
        0.0,
        1.0,
        0.0,
        0.0,
        -1.0,
        0.0,
        0.0,
        0.0,
        0.0,
        0.0,
        1.0
      ],
      "name": "model.fbx"
    },
    {
      "children": [
        3
      ],
      "name": "RootNode"
    },
    {
      "children": [
        4,
        5,
        6
      ],
      "matrix": [
        1.0,
        0.0,
        0.0,
        0.0,
        0.0,
        2.220446049250313e-16,
        -1.0,
        0.0,
        0.0,
        1.0,
        2.220446049250313e-16,
        0.0,
        0.0,
        0.0,
        0.0,
        1.0
      ],
      "name": "model"
    },
    {
      "mesh": 0,
      "name": "model_tex_u1_v1_0"
    },
    {
      "mesh": 1,
      "name": "model_tex_u1_v1_0"
    },
    {
      "mesh": 2,
      "name": "model_tex_u1_v1_0"
    }
  ],
  "samplers": [
    {
      "magFilter": 9729,
      "minFilter": 9987,
      "wrapS": 10497,
      "wrapT": 10497
    }
  ],
  "scene": 0,
  "scenes": [
    {
      "name": "Sketchfab_Scene",
      "nodes": [
        0
      ]
    }
  ],
  "textures": [
    {
      "sampler": 0,
      "source": 0
    }
  ]
}
